<?xml version="1.0" encoding="UTF-8"?>
<svg id="Ebene_1" data-name="Ebene 1" xmlns="http://www.w3.org/2000/svg" version="1.1" viewBox="0 0 3838 859.8">
  <rect x="10" y="514.8" width="3810.8" height="19.7" style="fill: #fff; stroke-width: 0px;"/>
  <g>
    <path d="M220.2,406.9c-7.2-11-17.5-28.3-30.8-51.9-1.6-3-6.2-11.1-13.6-24.2-7.5-13.2-14.4-24.5-20.8-34-6.4-9.5-12-17-16.9-22.4l-41.1,46.4v78.6l37.1,4.1v20H19.6v-20l33.8-4.1v-253.4l-33.4-4.9v-20.4h110.8v20.4l-33.8,4.9v142.6l119.8-142.6-34.2-4.9v-20.4h100.6v20.4l-31.4,4.9-88,98.6c9.5,8.1,19.6,20,30.4,35.4,10.7,15.5,23.8,35.4,39.3,59.9,13.3,20.9,23,35.8,29.1,44.6,6.1,8.8,10.9,13.6,14.5,14.5l19.1,4.5v20h-58.3c-4.6,0-10.5-5.5-17.7-16.5Z" style="fill: #fff; stroke-width: 0px;"/>
    <path d="M429.8,146l-33.4-4.9v-20.4h207.4l5.7,63.1h-23.2l-11.8-39.5-101-2.4v114.9l68-1.2,5.7-33.8h22.4v93.7h-22.4l-5.7-35-68-1.2v121.4l114.9-4.1,21.6-51.3,24,7.3-11.8,70.9h-226.1v-20l33.8-4.1v-253.4Z" style="fill: #fff; stroke-width: 0px;"/>
    <path d="M717.4,120.7h108.4v20.4l-36.3,4.9,67.2,191.1,15.1,49.7,13.4-50.5,60.7-190.3-32.2-4.9v-20.4h90.8v20.4l-26.1,4.9-96.6,280.7h-35.4l-104.3-280.7-24.9-4.9v-20.4Z" style="fill: #fff; stroke-width: 0px;"/>
    <path d="M1138.3,146l-37.9-4.9v-20.4h119.8v20.4l-37.9,4.9v253.4l37.9,4.5v19.6h-119.4v-20l37.5-4.1v-253.4Z" style="fill: #fff; stroke-width: 0px;"/>
    <path d="M1377,146l-32.6-4.9v-20.4h75.8l135.7,198.8,22.8,43.2v-216.7l-35.4-4.9v-20.4h96.1v20.4l-32.6,4.9v277.4h-32.2l-138.5-203.3-31.4-53.8v233l38.7,4.1v20h-99v-20l32.6-4.5v-253Z" style="fill: #fff; stroke-width: 0px;"/>
  </g>
  <g>
    <path d="M2313.6,424.2c-11.1-2.4-23.4-5.7-36.7-9.8-8.1-3-14.3-4.6-18.3-4.9l3.3-73.7h26.1l6.9,53c4.6,4.3,12.2,8.2,22.6,11.6,10.5,3.4,21.9,5.1,34.4,5.1,20.6,0,36.3-4.6,47.1-13.9,10.7-9.2,16.1-22,16.1-38.3s-2.9-19.7-8.8-27.3c-5.8-7.6-13.6-14.1-23.2-19.6-9.6-5.4-22.9-11.8-39.7-19.1-15.2-6.8-28.5-13.7-39.7-20.8-11.3-7.1-21.1-16.5-29.3-28.3-8.3-11.8-12.4-26-12.4-42.6s4-28.3,12-40.1c8-11.8,19.6-21.1,34.6-27.9,15.1-6.8,32.7-10.2,52.8-10.2s23.6,1,33.2,2.9c9.6,1.9,20.6,4.5,32.8,7.7,5.4,1.9,10,3.1,13.9,3.7l-2.4,68.4h-24.9l-8.1-50.1c-2.7-2.7-8.4-5.3-16.9-7.7-8.6-2.4-17.9-3.7-27.9-3.7-18.7,0-32.9,3.9-42.6,11.8-9.6,7.9-14.5,19.3-14.5,34.2s2.9,20,8.8,27.3c5.8,7.3,13.1,13.6,21.8,18.7,8.7,5.2,22.5,12.2,41.6,21.2,17.7,8.4,32,16,43.2,22.8,11.1,6.8,20.7,15.7,28.7,26.7,8,11,12,24.1,12,39.3s-4,28.3-12,41.6c-8,13.3-20.2,24.2-36.7,32.8-16.4,8.6-36.3,12.8-59.7,12.8s-26.8-1.2-37.9-3.7Z" style="fill: #fff; stroke-width: 0px;"/>
    <path d="M2674.9,142.3l-70.1,2.4-14.3,85.1h-26.9l6.9-109.2h253.8l4.9,109.2h-25.7l-13.4-85.1-70.5-2.4v257.1l57.9,4.1v20h-155.6v-20l53-4.1V142.3Z" style="fill: #fff; stroke-width: 0px;"/>
    <path d="M2972.7,146l-33.4-4.9v-20.4h207.4l5.7,63.1h-23.2l-11.8-39.5-101-2.4v114.9l68-1.2,5.7-33.8h22.4v93.7h-22.4l-5.7-35-68-1.2v121.4l114.9-4.1,21.6-51.3,24,7.3-11.8,70.9h-226.1v-20l33.8-4.1v-253.4Z" style="fill: #fff; stroke-width: 0px;"/>
    <path d="M3326.8,146l-37.9-4.9v-20.4h119.8v20.4l-37.9,4.9v253.4l37.9,4.5v19.6h-119.4v-20l37.5-4.1v-253.4Z" style="fill: #fff; stroke-width: 0px;"/>
    <path d="M3565.5,146l-32.6-4.9v-20.4h75.8l135.7,198.8,22.8,43.2v-216.7l-35.4-4.9v-20.4h96.1v20.4l-32.6,4.9v277.4h-32.2l-138.5-203.3-31.4-53.8v233l38.7,4.1v20h-99v-20l32.6-4.5v-253Z" style="fill: #fff; stroke-width: 0px;"/>
  </g>
  <g>
    <path d="M1148.3,797.5c-2.8-2.7-4.2-6.1-4.2-10.2s1.7-8.5,5-11.6c3.3-3.1,7.2-4.7,11.7-4.7s8.1,1.4,10.6,4.1c2.4,2.7,3.7,6.1,3.7,10.1s-1.6,8.8-4.9,11.8c-3.3,3-7.2,4.5-11.8,4.5s-7.2-1.3-10-4Z" style="fill: #fff; stroke-width: 0px;"/>
    <path d="M1229.2,633.8h60.2v11.1l-20.9,2.7,30.5,103.8,6.4,31,7.3-31,25.6-84.9-6-18.9-15.8-2.7v-11.1h62.5v11.1l-21.8,2.7,30,103.8,7.6,33.4,6.2-33.4,28-103.8-22-2.7v-11.1h52.9v11.1l-14.7,2.7-44.2,152.8h-21.8l-34-111.6-32.9,111.6h-21.1l-47.4-152.6-14.7-2.9v-11.1Z" style="fill: #fff; stroke-width: 0px;"/>
    <path d="M1528.9,647.6l-18.2-2.7v-11.1h113.2l3.1,34.5h-12.7l-6.4-21.6-55.1-1.3v62.8l37.1-.7,3.1-18.5h12.2v51.2h-12.2l-3.1-19.2-37.1-.7v66.4l62.7-2.2,11.8-28.1,13.1,4-6.4,38.8h-123.4v-10.9l18.5-2.2v-138.5Z" style="fill: #fff; stroke-width: 0px;"/>
    <path d="M1718.1,647.6l-18.2-2.7v-11.1h30c5,0,11.4-.3,19.1-.9,7.1-.6,12.4-.9,15.8-.9,20.5,0,35.1,3.2,43.9,9.6,8.8,6.4,13.2,15.7,13.2,28.1s-3,19.6-9.1,27.2c-6.1,7.6-14.4,12.3-24.9,14.3,14.2-.3,25.4,3,33.6,10,8.1,7,12.2,16.5,12.2,28.5s-5.3,27.3-15.9,36.8c-10.6,9.5-28.1,14.3-52.6,14.3s-10.4-.2-15.3-.7c-11.6-.4-18.5-.7-20.7-.7h-29.6v-10.9l18.5-2.2v-138.5ZM1754.3,707h12.2c10.4,0,18.2-2.9,23.6-8.7,5.3-5.8,8-14,8-24.7s-2.7-18-8-22.8c-5.3-4.8-14.5-7.2-27.3-7.2s-10.8.3-16.5.9l-4.7.4v61.9c2.1.1,6.3.2,12.7.2ZM1764.8,788.6c15,0,25.8-3.1,32.6-9.2,6.7-6.2,10.1-15,10.1-26.6s-2.9-19.7-8.8-24.9c-5.9-5.2-15.3-7.8-28.3-7.8s-24.7.2-28.7.4v66.4c3.4,1.2,11.1,1.8,23.1,1.8Z" style="fill: #fff; stroke-width: 0px;"/>
    <path d="M1884,840v-13.6h190.1v13.6h-190.1Z" style="fill: #fff; stroke-width: 0px;"/>
    <path d="M2145,647.6l-17.3-2.7v-11.1h29.1c4.6,0,11.2-.3,19.8-.9,8.6-.6,15-.9,19.3-.9,27.6,0,48.1,6.9,61.5,20.8,13.4,13.9,20.1,33.4,20.1,58.5s-3.4,33.1-10.3,46.7c-6.9,13.6-16.6,24.2-29,31.7s-26.8,11.4-42.9,11.4-9.6-.3-18.2-.9c-8.9-.6-15.6-.9-20-.9h-30.5v-10.9l18.5-2.2v-138.5ZM2188.5,788.6h6.7c11.1-.1,20.9-3,29.5-8.5,8.5-5.5,15.2-13.7,19.9-24.6,4.7-10.9,7.1-24.2,7.1-39.8,0-23.5-5.1-41.3-15.2-53.5-10.2-12.2-25.5-18.3-45.9-18.3s-9.4.3-15.3.9c-2.5.4-4.7.7-6.7.7v141.2c5.2,1.2,11.9,1.8,20,1.8Z" style="fill: #fff; stroke-width: 0px;"/>
    <path d="M2357.9,647.6l-18.2-2.7v-11.1h113.2l3.1,34.5h-12.7l-6.4-21.6-55.1-1.3v62.8l37.1-.7,3.1-18.5h12.2v51.2h-12.2l-3.1-19.2-37.1-.7v66.4l62.7-2.2,11.8-28.1,13.1,4-6.4,38.8h-123.4v-10.9l18.5-2.2v-138.5Z" style="fill: #fff; stroke-width: 0px;"/>
    <path d="M2514.9,633.8h59.1v11.1l-19.8,2.7,36.7,104.5,8.2,27.2,7.3-27.6,33.1-104-17.6-2.7v-11.1h49.6v11.1l-14.2,2.7-52.7,153.5h-19.3l-56.9-153.5-13.6-2.7v-11.1Z" style="fill: #fff; stroke-width: 0px;"/>
    <path d="M2740.5,647.6l-18.2-2.7v-11.1h113.2l3.1,34.5h-12.7l-6.4-21.6-55.1-1.3v62.8l37.1-.7,3.1-18.5h12.2v51.2h-12.2l-3.1-19.2-37.1-.7v66.4l62.7-2.2,11.8-28.1,13.1,4-6.4,38.8h-123.4v-10.9l18.5-2.2v-138.5Z" style="fill: #fff; stroke-width: 0px;"/>
    <path d="M2930.2,647.6l-18-2.7v-11.1h63.8v11.1l-22,2.7v138.5l57.4-2,13.1-37.4,13.6,2-7.8,50.6h-118.5v-10.9l18.5-2.2v-138.5Z" style="fill: #fff; stroke-width: 0px;"/>
    <path d="M3125.7,791.2c-10.4-7-18.3-16.8-23.7-29.5-5.3-12.7-8-27.4-8-44.2s3.2-32.1,9.7-45c6.4-12.9,15.3-22.9,26.6-30,11.3-7.1,23.9-10.6,38-10.6,23.1,0,40.8,7.3,53,21.9,12.2,14.6,18.3,34.9,18.3,60.7s-3.3,32.6-9.9,45.8c-6.6,13.1-15.6,23.3-27.1,30.5-11.5,7.2-24.3,10.8-38.6,10.8s-27.9-3.5-38.3-10.5ZM3132.9,662.4c-8.3,12.6-12.4,30.9-12.4,55.1s4,39.9,12.1,52.9c8.1,13,19.4,19.5,33.9,19.5s25.5-6.5,33.9-19.4c8.4-12.9,12.6-31.5,12.6-55.7s-4-39.9-12-52.5c-8-12.5-19.3-18.8-34-18.8s-25.7,6.3-34,18.8Z" style="fill: #fff; stroke-width: 0px;"/>
    <path d="M3320.6,647.6l-17.3-2.7v-11.1h29.6c5.3,0,10.6-.2,15.8-.7,8-.6,15.6-.9,22.7-.9,21.5.1,36.7,4.2,45.6,12,8.9,7.9,13.3,19.8,13.3,35.6s-2.7,22.2-8.2,31c-5.5,8.8-13.1,15.4-22.8,20-9.7,4.6-20.9,6.9-33.5,6.9s-8.7-.1-13.1-.3c-4.4-.2-7.2-.4-8.2-.6v49l30.5,2.5v10.9h-72.7v-10.9l18.5-2.2v-138.5ZM3365.7,725.7c11.7,0,21.2-3.6,28.6-10.7,7.3-7.1,11-18.8,11-35s-3.2-21.9-9.6-27.5c-6.4-5.6-16.3-8.4-29.8-8.4s-9.8.3-15.1.9c-3.3.3-5.4.4-6.4.4v79.1c4.1.7,11.3,1.1,21.3,1.1Z" style="fill: #fff; stroke-width: 0px;"/>
    <path d="M3508.9,647.6l-18.2-2.7v-11.1h113.2l3.1,34.5h-12.7l-6.4-21.6-55.1-1.3v62.8l37.1-.7,3.1-18.5h12.2v51.2h-12.2l-3.1-19.2-37.1-.7v66.4l62.7-2.2,11.8-28.1,13.1,4-6.4,38.8h-123.4v-10.9l18.5-2.2v-138.5Z" style="fill: #fff; stroke-width: 0px;"/>
    <path d="M3679.6,788.3l18.5-2.2v-138.5l-17.3-2.9v-10.9h29.1c4.1,0,9.8-.3,16.9-.9,7.4-.6,13.2-.9,17.3-.9,21.8,0,37.3,3.5,46.6,10.6,9.3,7.1,13.9,18.2,13.9,33.3s-2.9,20.2-8.8,29c-5.9,8.8-13.9,14.7-24.1,17.8,4.7,2.5,9.2,6.9,13.2,13,4.1,6.2,9.1,14.7,15,25.7,4.6,8.3,8.1,14.4,10.6,18.3,2.4,3.9,4.8,6,7,6.5l8.7,2.2v10.9h-30.7c-2.4,0-5-2.6-8-7.7-3-5.1-6.9-13-11.8-23.7-5.3-11.7-10-21-13.9-28-3.9-6.9-7.8-11.3-11.7-13.3-15.9,0-25.3,0-28.2-.2v59.7l22,2.2v10.9h-64.2v-10.9ZM3770.7,705.3c5.5-6.2,8.2-15.5,8.2-27.8s-2.8-19.1-8.3-24.8c-5.6-5.7-15.2-8.6-28.8-8.6s-9.5.3-14.2.9c-3,.3-4.9.4-5.8.4v69.1c2.2.1,6.8.2,13.8.2h12.7c9.5,0,17-3.1,22.5-9.4Z" style="fill: #fff; stroke-width: 0px;"/>
  </g>
  <path d="M2064.5,153.7v-1.8h70.8v-30h-67.1l.2-2.2,12.2-119.6h-42.4l-12.3,120-.2,1.8h-99.8l.2-2.2,12.8-119.6h-43l-12.3,120-.2,1.8h-70v30h66.5l-.2,2.2-10.8,119.5-.2,1.8h-67.2v30.6h63.1l-.2,2.2-12.2,116.7h43l12.3-117.1.2-1.8h99.7l-.2,2.2-11.1,116.7h42.4l11.2-117.1.2-1.8h73.4l-.5-30.6h-68.8l.2-2.2,10.2-119.5ZM2022,154l-11.9,119.5-.2,1.8h-98.6l.2-2.2,10.8-119.5.2-1.8h99.8l-.2,2.2Z" style="fill: #fff; stroke-width: 0px;"/>
</svg>