<?xml version="1.0" encoding="UTF-8"?>
<svg id="Ebene_1" data-name="Ebene 1" xmlns="http://www.w3.org/2000/svg" version="1.1" viewBox="0 0 4512.9 901.5">
  <defs>
    <style>
      .cls-1 {
        letter-spacing: .2em;
      }

      .cls-1, .cls-2 {
        font-size: 407.4px;
      }

      .cls-1, .cls-2, .cls-3, .cls-4, .cls-5 {
        fill: #fff;
      }

      .cls-1, .cls-2, .cls-5 {
        font-family: Merriweather-Regular, Merriweather;
      }

      .cls-2 {
        letter-spacing: .2em;
      }

      .cls-3 {
        opacity: 1;
      }

      .cls-3, .cls-6, .cls-4 {
        stroke-width: 0px;
      }

      .cls-6 {
        fill: #606060;
      }

      .cls-5 {
        font-size: 222.7px;
        letter-spacing: .2em;
      }
    </style>
  </defs>
  <path class="cls-4" d="M887.1,1325.5h73.1v135.8l149.6-131.1c3.4-3,8-4.7,12.8-4.7h102.9l-186.8,158.9,197.6,162.7h-98.1c-8.2,0-16.1-2.7-22.3-7.5l-135.6-106.7-20.6,20.2v94h-72.6v-321.6h0Z"/>
  <path class="cls-4" d="M1980.8,1647.4h-158.5l-82.9-67.4h220s30-.1,30-31.6-30-30.8-30-30.8h-131.3s-88.7-9.9-88.7-93.6,103.9-98.9,103.9-98.9h216.2v65.5h-208.9s-37-.6-37,31.8,37.6,31.3,37.6,31.3h125.9s86.8,2.2,86.8,93.6-83.2,100.1-83.2,100.1h0Z"/>
  <polygon class="cls-4" points="2118.2 1201 2118.2 1265.6 2349.6 1265.6 2349.6 1707.7 2118.2 1707.7 2118.2 1771.6 2406.6 1771.6 2406.6 1201 2118.2 1201"/>
  <polygon class="cls-4" points="536.7 1771.6 825.1 1771.6 825.1 1707.7 593.7 1707.7 593.7 1265.6 825.1 1265.6 825.1 1201 536.7 1201 536.7 1771.6"/>
  <g>
    <path class="cls-3" d="M901.3,2648.5h68.4v12.6l-23.7,3,34.6,117.5,7.3,35.1,8.3-35.1,29-96.1-6.8-21.4-17.9-3v-12.6h70.9v12.6l-24.7,3,34.1,117.5,8.6,37.8,7.1-37.8,31.8-117.5-25-3v-12.6h60v12.6l-16.6,3-50.2,173h-24.7l-38.6-126.4-37.3,126.4h-24l-53.7-172.8-16.6-3.3v-12.6Z"/>
    <path class="cls-3" d="M1241.3,2664.2l-20.7-3v-12.6h128.4l3.5,39.1h-14.4l-7.3-24.5-62.6-1.5v71.1l42.1-.8,3.5-20.9h13.9v58h-13.9l-3.5-21.7-42.1-.8v75.2l71.1-2.5,13.4-31.8,14.9,4.5-7.3,43.9h-140v-12.4l20.9-2.5v-156.9Z"/>
    <path class="cls-3" d="M1456,2664.2l-20.7-3v-12.6h34.1c5.7,0,12.9-.3,21.7-1,8.1-.7,14-1,17.9-1,23.2,0,39.8,3.6,49.8,10.8,10,7.2,15,17.8,15,31.8s-3.4,22.2-10.3,30.8c-6.9,8.6-16.3,14-28.3,16.1,16.1-.3,28.8,3.4,38.1,11.4,9.2,7.9,13.9,18.7,13.9,32.3s-6,30.9-18,41.6c-12,10.8-31.9,16.1-59.7,16.1s-11.9-.3-17.4-.8c-13.1-.5-20.9-.8-23.5-.8h-33.5v-12.4l20.9-2.5v-156.9ZM1497.1,2731.5h13.9c11.8,0,20.7-3.3,26.7-9.8,6.1-6.6,9.1-15.9,9.1-28s-3-20.4-9.1-25.9c-6.1-5.5-16.4-8.2-31-8.2s-12.3.3-18.7,1l-5.3.5v70.1c2.4.2,7.1.3,14.4.3ZM1508.9,2823.8c17,0,29.3-3.5,37-10.5,7.7-7,11.5-17,11.5-30.1s-3.3-22.4-10-28.3c-6.6-5.9-17.4-8.8-32.2-8.8s-28,.2-32.5.5v75.2c3.9,1.3,12.6,2,26.2,2Z"/>
    <path class="cls-3" d="M1789.4,2664.2l-19.7-3v-12.6h33c5.2,0,12.7-.3,22.4-1,9.8-.7,17.1-1,21.9-1,31.3,0,54.5,7.9,69.7,23.6,15.2,15.7,22.8,37.8,22.8,66.2s-3.9,37.5-11.7,52.8c-7.8,15.4-18.8,27.4-32.9,35.9-14.1,8.6-30.4,12.9-48.7,12.9s-10.9-.3-20.7-1c-10.1-.7-17.7-1-22.7-1h-34.6v-12.4l20.9-2.5v-156.9ZM1838.9,2823.8h7.6c12.6-.2,23.8-3.4,33.4-9.6,9.7-6.2,17.2-15.5,22.6-27.9,5.4-12.4,8.1-27.4,8.1-45,0-26.6-5.8-46.7-17.3-60.5-11.5-13.8-28.9-20.7-52.1-20.7s-10.7.3-17.4,1c-2.9.5-5.4.8-7.6.8v159.9c5.9,1.3,13.5,2,22.7,2Z"/>
    <path class="cls-3" d="M2031.1,2664.2l-20.7-3v-12.6h128.4l3.5,39.1h-14.4l-7.3-24.5-62.6-1.5v71.1l42.1-.8,3.5-20.9h13.9v58h-13.9l-3.5-21.7-42.1-.8v75.2l71.1-2.5,13.4-31.8,14.9,4.5-7.3,43.9h-140v-12.4l20.9-2.5v-156.9Z"/>
    <path class="cls-3" d="M2209.2,2648.5h67.1v12.6l-22.4,3,41.6,118.3,9.3,30.8,8.3-31.3,37.6-117.8-19.9-3v-12.6h56.3v12.6l-16.1,3-59.8,173.8h-21.9l-64.6-173.8-15.4-3v-12.6Z"/>
    <path class="cls-3" d="M2465.2,2664.2l-20.7-3v-12.6h128.4l3.5,39.1h-14.4l-7.3-24.5-62.6-1.5v71.1l42.1-.8,3.5-20.9h13.9v58h-13.9l-3.5-21.7-42.1-.8v75.2l71.1-2.5,13.4-31.8,14.9,4.5-7.3,43.9h-140v-12.4l20.9-2.5v-156.9Z"/>
    <path class="cls-3" d="M2680.4,2664.2l-20.4-3v-12.6h72.4v12.6l-25,3v156.9l65.1-2.3,14.9-42.4,15.4,2.3-8.8,57.3h-134.4v-12.4l20.9-2.5v-156.9Z"/>
    <path class="cls-3" d="M2902.2,2826.9c-11.9-7.9-20.8-19-26.9-33.4-6.1-14.4-9.1-31.1-9.1-50.1s3.7-36.3,11-51c7.3-14.6,17.4-25.9,30.1-33.9,12.8-8,27.2-12,43.1-12,26.2,0,46.3,8.3,60.2,24.8,13.9,16.6,20.8,39.5,20.8,68.7s-3.7,37-11.2,51.8c-7.5,14.9-17.7,26.4-30.8,34.6-13,8.2-27.6,12.2-43.8,12.2s-31.7-3.9-43.5-11.9ZM2910.4,2680.9c-9.4,14.2-14.1,35-14.1,62.4s4.6,45.2,13.7,59.9c9.2,14.7,22,22.1,38.5,22.1s29-7.3,38.5-21.9c9.5-14.6,14.3-35.6,14.3-63.1s-4.5-45.2-13.6-59.4c-9.1-14.2-21.9-21.3-38.6-21.3s-29.2,7.1-38.6,21.3Z"/>
    <path class="cls-3" d="M3123.3,2664.2l-19.7-3v-12.6h33.5c6.1,0,12-.3,17.9-.8,9.1-.7,17.7-1,25.7-1,24.4.2,41.6,4.7,51.7,13.6,10.1,8.9,15.1,22.4,15.1,40.4s-3.1,25.1-9.3,35.1c-6.2,9.9-14.8,17.5-25.9,22.7-11,5.2-23.7,7.8-38,7.8s-9.8-.1-14.9-.4-8.2-.5-9.3-.6v55.5l34.6,2.8v12.4h-82.5v-12.4l20.9-2.5v-156.9ZM3174.5,2752.7c13.3,0,24.1-4,32.4-12.1,8.3-8.1,12.5-21.3,12.5-39.6s-3.6-24.8-10.8-31.2c-7.2-6.3-18.5-9.5-33.8-9.5s-11.1.3-17.2,1c-3.7.3-6.1.5-7.3.5v89.5c4.7.8,12.8,1.3,24.2,1.3Z"/>
    <path class="cls-3" d="M3337,2664.2l-20.7-3v-12.6h128.4l3.5,39.1h-14.4l-7.3-24.5-62.6-1.5v71.1l42.1-.8,3.5-20.9h13.9v58h-13.9l-3.5-21.7-42.1-.8v75.2l71.1-2.5,13.4-31.8,14.9,4.5-7.3,43.9h-140v-12.4l20.9-2.5v-156.9Z"/>
    <path class="cls-3" d="M3530.7,2823.6l20.9-2.5v-156.9l-19.7-3.3v-12.4h33c4.7,0,11.1-.3,19.2-1,8.4-.7,15-1,19.7-1,24.7,0,42.3,4,52.8,12,10.5,8,15.8,20.6,15.8,37.7s-3.3,22.9-10,32.8c-6.6,9.9-15.8,16.6-27.4,20.2,5.4,2.9,10.4,7.8,15,14.8,4.6,7,10.3,16.7,17,29.1,5.2,9.4,9.2,16.3,12,20.7,2.8,4.4,5.4,6.8,7.9,7.3l9.8,2.5v12.4h-34.8c-2.7,0-5.7-2.9-9.1-8.7-3.4-5.8-7.8-14.8-13.4-26.9-6.1-13.3-11.3-23.8-15.8-31.7-4.5-7.8-8.9-12.8-13.2-15-18,0-28.7,0-32-.3v67.6l25,2.5v12.4h-72.9v-12.4ZM3634.1,2729.5c6.2-7.1,9.3-17.6,9.3-31.5s-3.2-21.7-9.5-28.1c-6.3-6.5-17.2-9.7-32.7-9.7s-10.8.3-16.1,1c-3.4.3-5.5.5-6.6.5v78.2c2.5.2,7.7.3,15.6.3h14.4c10.8,0,19.3-3.5,25.5-10.6Z"/>
  </g>
  <rect class="cls-4" x="-1224.5" y="4429.4" width="3810.8" height="19.7"/>
  <text class="cls-1" transform="translate(-1234.5 4338)"><tspan x="0" y="0">KEVIN</tspan></text>
  <text class="cls-2" transform="translate(998.8 4338)"><tspan x="0" y="0">STEIN</tspan></text>
  <text class="cls-5" transform="translate(-104.4 4713.8)"><tspan x="0" y="0">.WEB_DEVELOPER</tspan></text>
  <g>
    <path class="cls-4" d="M760.6,4340.4l11.3-118.9h-97.7l-12.5,118.9h-45l12.5-118.9h-63v-32.6h67.3l10.9-121.5h-66.4v-32.1h70.1l12.5-121.8h45l-13,121.8h97.8l12.5-121.8h44.4l-12.5,121.8h67v32.1h-70.7l-10.4,121.5h68.7l.5,32.6h-73.5l-11.3,118.9h-44.4ZM677.9,4188.9h96.6l12.1-121.5h-97.8l-10.9,121.5Z"/>
    <path class="cls-6" d="M846.2,3914.6l-12.2,119.6-.2,2.2h67.1v30.1h-70.6l-.2,1.8-10.2,119.5-.2,2.2h68.8l.5,30.6h-73.4l-.2,1.8-11.2,117.1h-42.4l11.1-116.7.2-2.2h-99.7l-.2,1.8-12.3,117.1h-43l12.2-116.7.2-2.2h-63.1v-30.6h67.2l.2-1.8,10.8-119.5.2-2.2h-66.5v-30.1h70.1l.2-1.8,12.3-120h43l-12.8,119.6-.2,2.2h99.8l.2-1.8,12.3-120h42.4M676.8,4189.9h98.6l.2-1.8,11.9-119.5.2-2.2h-99.8l-.2,1.8-10.8,119.5-.2,2.2M848.4,3912.6h-46.5l-12.5,121.8h-95.7l13-121.8h-47l-12.5,121.8h-70.2v34.1h66.3l-10.8,119.5h-67.4v34.6h62.9l-12.5,118.9h47l12.5-118.9h95.7l-11.3,118.9h46.5l11.3-118.9h73.6l-.6-34.6h-68.5l10.2-119.5h70.8v-34.1h-66.8l12.5-121.8h0ZM785.5,4068.4l-11.9,119.5h-94.6l10.8-119.5h95.7Z"/>
  </g>
  <rect class="cls-4" x="-1174.2" y="5915.7" width="3810.8" height="19.7"/>
  <text class="cls-1" transform="translate(-1184.2 5824.3)"><tspan x="0" y="0">KEVIN</tspan></text>
  <text class="cls-2" transform="translate(1049.1 5824.3)"><tspan x="0" y="0">STEIN</tspan></text>
  <text class="cls-5" transform="translate(-54.1 6200.2)"><tspan x="0" y="0">.WEB_DEVELOPER</tspan></text>
  <g>
    <path class="cls-4" d="M802.1,5826.8l15.3-142.6h-114.1l-14.6,142.6h-52.4l14.6-142.6h-78.4v-37.9h82.8l12.1-141.9h-80.3l-.6-38.5h86.1s13.3-139.2,13.3-139.2h52.4l-13.3,139.2h114.1l14.6-139.2h53l-14.6,139.2h73.7v38.5h-78.8l-12.8,141.9h77.7v37.9h-82.1l-14.6,142.6h-53ZM707.7,5646.3h114.1l12.8-141.9h-112.7l-14.1,141.9Z"/>
    <path class="cls-6" d="M905.5,5327.8l-14.4,137-.2,2.2h73.8v36.5s-76.9,0-76.9,0h-1.8l-.2,1.8-12.6,139.9-.2,2.2h77.8v35.9h-82l-.2,1.8-14.4,140.8h-51l15-140.3.2-2.2h-116.1l-.2,1.8-14.4,140.8h-50.4l14.4-140.4.2-2.2h-78.5v-35.9h82.7l.2-1.8,11.9-139.9.2-2.2h-80.4l-.6-36.5h86l.2-1.8,13.1-137.4h50.4s-13.1,137-13.1,137l-.2,2.2h116.1l.2-1.8,14.4-137.4h51M706.6,5647.3h116.1l.2-1.8,12.6-139.9.2-2.2h-114.7l-.2,1.8-13.9,139.9-.2,2.2M907.7,5325.8h-55l-14.6,139.2h-112.1l13.3-139.2h-54.4s-13.3,139.2-13.3,139.2h-86.2l.7,40.5h80.2l-11.9,139.9h-82.9v39.9h78.2l-14.6,142.6h54.4l14.6-142.6h112.1l-15.3,142.6h55l14.6-142.6h82.2v-39.9h-77.6l12.6-139.9h78.9v-40.5h-73.6l14.6-139.2h0ZM833.4,5505.5l-12.6,139.9h-112.1l13.9-139.9h110.7Z"/>
  </g>
  <rect class="cls-4" x="-1038.4" y="7335.8" width="3810.8" height="19.7"/>
  <text class="cls-1" transform="translate(-1048.4 7244.4)"><tspan x="0" y="0">KEVIN-</tspan></text>
  <text class="cls-2" transform="translate(1184.9 7244.4)"><tspan x="0" y="0">STEIN</tspan></text>
  <text class="cls-5" transform="translate(81.7 7620.3)"><tspan x="0" y="0">.WEB_DEVELOPER</tspan></text>
</svg>