<?xml version="1.0" encoding="UTF-8"?>
<svg id="Ebene_1" data-name="Ebene 1" xmlns="http://www.w3.org/2000/svg" version="1.1" xmlns:xlink="http://www.w3.org/1999/xlink" viewBox="0 0 141.73 141.73">
  <defs>
    <style>
      .cls-1 {
        fill: url(#Unbenannter_Verlauf_72);
      }

      .cls-1, .cls-2, .cls-3, .cls-4 {
        stroke-width: 0px;
      }

      .cls-2 {
        fill: url(#Unbenannter_Verlauf_64);
      }

      .cls-3 {
        fill: url(#Unbenannter_Verlauf_68);
      }

      .cls-4 {
        fill: url(#Unbenannter_Verlauf_75);
      }
    </style>
    <linearGradient id="Unbenannter_Verlauf_75" data-name="Unbenannter Verlauf 75" x1="18.29" y1="141.73" x2="18.29" y2="0" gradientUnits="userSpaceOnUse">
      <stop offset="0" stop-color="#356a7d"/>
      <stop offset="1" stop-color="#5a9baf"/>
    </linearGradient>
    <linearGradient id="Unbenannter_Verlauf_72" data-name="Unbenannter Verlauf 72" x1="123.44" y1="141.73" x2="123.44" y2="0" gradientUnits="userSpaceOnUse">
      <stop offset="0" stop-color="#397387"/>
      <stop offset="1" stop-color="#63a3b6"/>
    </linearGradient>
    <linearGradient id="Unbenannter_Verlauf_64" data-name="Unbenannter Verlauf 64" x1="47.93" y1="99.27" x2="47.93" y2="42.83" gradientUnits="userSpaceOnUse">
      <stop offset="0" stop-color="#3e7688"/>
      <stop offset="1" stop-color="#4f90a3"/>
    </linearGradient>
    <linearGradient id="Unbenannter_Verlauf_68" data-name="Unbenannter Verlauf 68" x1="95.85" y1="99.37" x2="95.85" y2="42.83" gradientUnits="userSpaceOnUse">
      <stop offset="0" stop-color="#3e7a8c"/>
      <stop offset="1" stop-color="#5696a9"/>
    </linearGradient>
  </defs>
  <polygon class="cls-4" points="0 0 36.59 0 36.59 13.88 12.26 13.88 12.26 128.03 36.59 128.03 36.59 141.73 0 141.73 0 0"/>
  <polygon class="cls-1" points="141.73 0 105.14 0 105.14 13.88 129.48 13.88 129.48 128.03 105.14 128.03 105.14 141.73 141.73 141.73 141.73 0"/>
  <path class="cls-2" d="M19.83,42.83h11.76v23.82l24.09-23c.55-.53,1.29-.82,2.06-.82h16.56l-30.08,27.89,31.81,28.55h-15.79c-1.32,0-2.6-.47-3.59-1.32l-21.83-18.73-3.32,3.55v16.5h-11.68v-56.44Z"/>
  <path class="cls-3" d="M108.59,99.37h-25.53l-13.34-11.83h35.42s4.83-.02,4.83-5.55c0-5.11-4.83-5.4-4.83-5.4h-21.14s-14.29-1.73-14.29-16.42,16.73-17.35,16.73-17.35h34.81v11.49h-33.63s-5.95-.11-5.95,5.58,6.05,5.49,6.05,5.49h20.26s13.97.39,13.97,16.43c0,17.56-13.39,17.56-13.39,17.56Z"/>
</svg>